<svg xmlns="http://www.w3.org/2000/svg" version="1.1" xmlns:xlink="http://www.w3.org/1999/xlink" xmlns:svgjs="http://svgjs.dev/svgjs" width="1500" height="1500" viewBox="0 0 1500 1500"><g transform="matrix(1,0,0,1,-0.323615160350073,-0.3236151603499593)"><svg viewBox="0 0 343 343" data-background-color="#fffff5" preserveAspectRatio="xMidYMid meet" height="1500" width="1500" xmlns="http://www.w3.org/2000/svg" xmlns:xlink="http://www.w3.org/1999/xlink"><g id="tight-bounds" transform="matrix(1,0,0,1,0.0740000000000407,0.07400000000001228)"><svg viewBox="0 0 342.85155851775386 342.85155851775386" height="342.85155851775386" width="342.85155851775386"><g><svg></svg></g><g><svg viewBox="0 0 342.85155851775386 342.85155851775386" height="342.85155851775386" width="342.85155851775386"><g><path d="M0 171.426c0-94.676 76.75-171.426 171.426-171.426 94.676 0 171.426 76.75 171.426 171.426 0 94.676-76.75 171.426-171.426 171.426-94.676 0-171.426-76.75-171.426-171.426zM171.426 340.158c93.188 0 168.732-75.544 168.732-168.732 0-93.188-75.544-168.732-168.732-168.732-93.188 0-168.732 75.544-168.732 168.732 0 93.188 75.544 168.732 168.732 168.732z" data-fill-palette-color="tertiary" fill="#091627" stroke="transparent"></path><ellipse rx="164.56874808852186" ry="164.56874808852186" cx="171.42577925887693" cy="171.42577925887693" fill="#091627" stroke="transparent" stroke-width="0" fill-opacity="1" data-fill-palette-color="tertiary"></ellipse></g><g transform="matrix(1,0,0,1,64.84655864529837,132.32555009522173)"><svg viewBox="0 0 213.1584412271571 78.2004583273104" height="78.2004583273104" width="213.1584412271571"><g><svg viewBox="0 0 213.1584412271571 78.2004583273104" height="78.2004583273104" width="213.1584412271571"><g><svg viewBox="0 0 213.1584412271571 78.2004583273104" height="78.2004583273104" width="213.1584412271571"><g transform="matrix(1,0,0,1,0,48.33102049307244)"><svg viewBox="0 0 213.1584412271571 29.869437834237967" height="29.869437834237967" width="213.1584412271571"><g id="textblocktransform"><svg viewBox="0 0 213.1584412271571 29.869437834237967" height="29.869437834237967" width="213.1584412271571" id="textblock"><g><svg viewBox="0 0 213.1584412271571 29.869437834237967" height="29.869437834237967" width="213.1584412271571"><g transform="matrix(1,0,0,1,0,0)"><svg width="213.1584412271571" viewBox="2.1 -36.41 265.88 37.26" height="29.869437834237967" data-palette-color="#fffff5"><path d="M3 0.15L3 0.15Q2.5 0.15 2.3-0.2 2.1-0.55 2.1-0.95L2.1-0.95Q2.15-1.8 2.5-1.9 2.85-2 3.35-2L3.35-2Q4.95-2 5.6-2.58 6.25-3.15 6.43-4.03 6.6-4.9 6.6-5.85L6.6-5.85 6.6-25.7Q6.6-26.65 6.43-27.53 6.25-28.4 5.6-28.98 4.95-29.55 3.35-29.55L3.35-29.55Q2.85-29.55 2.5-29.65 2.15-29.75 2.1-30.6L2.1-30.6Q2.1-31 2.3-31.35 2.5-31.7 3-31.7L3-31.7Q4.6-31.65 6-31.6 7.4-31.55 8.9-31.55L8.9-31.55 15.95-31.55Q18.85-31.55 20.53-31.13 22.2-30.7 23.45-29.9L23.45-29.9Q24.75-29.05 25.5-27.58 26.25-26.1 26.25-24.35L26.25-24.35Q26.25-22.1 25.2-20.58 24.15-19.05 22.58-18.18 21-17.3 19.5-16.95L19.5-16.95 19.5-16.8Q22.15-16.85 24.2-15.85 26.25-14.85 27.45-13.2 28.65-11.55 28.7-9.6L28.7-9.6Q28.8-6.75 27.5-4.9 26.2-3.05 24.13-1.95 22.05-0.85 19.63-0.4 17.2 0.05 14.95 0.05L14.95 0.05 8.95 0Q7.45 0 6.03 0.03 4.6 0.05 3 0.15ZM11.55-29.7L11.55-17.8 13.65-17.8Q14.65-17.8 15.9-17.9 17.15-18 18.3-18.53 19.45-19.05 20.18-20.28 20.9-21.5 20.9-23.75L20.9-23.75Q20.9-26.4 19.63-28.05 18.35-29.7 15.05-29.7L15.05-29.7 11.55-29.7ZM15.15-1.95L15.15-1.95Q17.4-2 19.25-2.7 21.1-3.4 22.2-5.05 23.3-6.7 23.3-9.6L23.3-9.6Q23.15-11.2 22.23-12.6 21.3-14 19.23-14.9 17.15-15.8 13.6-15.8L13.6-15.8 11.55-15.8 11.55-5.85Q11.55-3.35 12.3-2.65 13.05-1.95 15.15-1.95ZM39.2 0.6L39.2 0.6Q36.15 0.6 34.32-1.15 32.5-2.9 32.5-5.35L32.5-5.35Q32.5-7.9 33.82-9.35 35.15-10.8 37.32-11.5 39.5-12.2 42.07-12.45 44.65-12.7 47.1-12.85L47.1-12.85 47.1-16.8Q47.1-19.15 45.92-20.48 44.75-21.8 41.95-21.8L41.95-21.8Q40.55-21.8 39.32-20.9 38.1-20 38.1-18.3L38.1-18.3Q38.1-17.5 38.5-16.95 38.9-16.4 39.3-16.1 39.7-15.8 39.7-15.7L39.7-15.7Q39.7-15.5 39.12-14.98 38.55-14.45 37.55-14.45L37.55-14.45Q36-14.45 35.15-15.6 34.3-16.75 34.3-18.15L34.3-18.15Q34.3-20.05 35.47-21.15 36.65-22.25 38.5-22.75 40.35-23.25 42.25-23.25L42.25-23.25Q44.5-23.25 46.62-22.7 48.75-22.15 50.12-20.6 51.5-19.05 51.5-15.95L51.5-15.95 51.5-4.3Q51.55-3.8 51.75-3.1 51.95-2.4 52.52-1.88 53.1-1.35 54.1-1.35L54.1-1.35Q54.45-1.35 54.65-1.23 54.85-1.1 54.85-0.55L54.85-0.55Q54.85-0.1 54.35 0.15 53.85 0.4 53.2 0.5 52.55 0.6 52.1 0.6L52.1 0.6Q50.25 0.6 48.8-0.48 47.35-1.55 47.1-3.45L47.1-3.45Q46-1.45 43.82-0.43 41.65 0.6 39.2 0.6ZM40.8-2.1L40.8-2.1Q42.5-2.1 43.92-2.95 45.35-3.8 46.22-5.28 47.1-6.75 47.1-8.55L47.1-8.55 47.1-11.4Q41.95-11.05 39.75-9.75 37.55-8.45 37.55-5.5L37.55-5.5Q37.55-2.1 40.8-2.1ZM46.7-27.35L46.7-27.35Q45.45-27.35 44.52-28.25 43.6-29.15 43.6-30.35L43.6-30.35Q43.6-31.65 44.52-32.5 45.45-33.35 46.75-33.35L46.75-33.35Q48.05-33.35 48.9-32.5 49.75-31.65 49.75-30.35L49.75-30.35Q49.75-29.15 48.87-28.25 48-27.35 46.7-27.35ZM38.05-27.35L38.05-27.35Q36.8-27.35 35.87-28.25 34.95-29.15 34.95-30.35L34.95-30.35Q34.95-31.65 35.87-32.5 36.8-33.35 38.1-33.35L38.1-33.35Q39.4-33.35 40.25-32.5 41.1-31.65 41.1-30.35L41.1-30.35Q41.1-29.15 40.22-28.25 39.35-27.35 38.05-27.35ZM66.3 0.85L66.3 0.85Q64.8 0.85 63.45 0.1 62.09-0.65 61.22-2.2 60.34-3.75 60.34-6.1L60.34-6.1 60.34-20.8 57.45-20.7Q57.09-20.7 56.92-20.98 56.74-21.25 56.74-21.6L56.74-21.6Q56.74-22.6 57.45-22.75L57.45-22.75Q59.29-23.1 60.24-23.93 61.2-24.75 61.72-25.9 62.24-27.05 62.7-28.4L62.7-28.4Q62.84-28.8 63.14-28.93 63.45-29.05 63.8-29.05L63.8-29.05Q64.09-29.05 64.47-28.9 64.84-28.75 64.84-28.35L64.84-28.35 64.5-22.65 70.34-23Q70.8-23.05 70.94-22.75 71.09-22.45 71.09-22.05L71.09-22.05Q71.09-21.55 70.92-21.05 70.75-20.55 70.5-20.55L70.5-20.55 64.89-20.7 64.89-5.5Q64.89-4.05 65.52-2.85 66.14-1.65 67.8-1.65L67.8-1.65Q68.34-1.65 69.05-1.75 69.75-1.85 70.55-2.2L70.55-2.2Q70.75-2.3 70.94-2.38 71.14-2.45 71.34-2.45L71.34-2.45Q71.75-2.45 71.94-2.13 72.14-1.8 72.3-1.45L72.3-1.45Q72.44-1 72.05-0.75L72.05-0.75Q70.5 0.25 69.19 0.55 67.89 0.85 66.3 0.85ZM85.24 0.85L85.24 0.85Q83.74 0.85 82.39 0.1 81.04-0.65 80.17-2.2 79.29-3.75 79.29-6.1L79.29-6.1 79.29-20.8 76.39-20.7Q76.04-20.7 75.87-20.98 75.69-21.25 75.69-21.6L75.69-21.6Q75.69-22.6 76.39-22.75L76.39-22.75Q78.24-23.1 79.19-23.93 80.14-24.75 80.67-25.9 81.19-27.05 81.64-28.4L81.64-28.4Q81.79-28.8 82.09-28.93 82.39-29.05 82.74-29.05L82.74-29.05Q83.04-29.05 83.42-28.9 83.79-28.75 83.79-28.35L83.79-28.35 83.44-22.65 89.29-23Q89.74-23.05 89.89-22.75 90.04-22.45 90.04-22.05L90.04-22.05Q90.04-21.55 89.87-21.05 89.69-20.55 89.44-20.55L89.44-20.55 83.84-20.7 83.84-5.5Q83.84-4.05 84.47-2.85 85.09-1.65 86.74-1.65L86.74-1.65Q87.29-1.65 87.99-1.75 88.69-1.85 89.49-2.2L89.49-2.2Q89.69-2.3 89.89-2.38 90.09-2.45 90.29-2.45L90.29-2.45Q90.69-2.45 90.89-2.13 91.09-1.8 91.24-1.45L91.24-1.45Q91.39-1 90.99-0.75L90.99-0.75Q89.44 0.25 88.14 0.55 86.84 0.85 85.24 0.85ZM95.84 0.15L95.84 0.15Q95.49 0.15 95.27-0.18 95.04-0.5 95.04-0.85L95.04-0.85Q95.14-1.6 95.44-1.68 95.74-1.75 96.24-1.75L96.24-1.75Q97.64-1.75 98.14-2.23 98.64-2.7 98.72-3.5 98.79-4.3 98.79-5.15L98.79-5.15 98.79-16.6Q98.79-17.5 98.72-18.28 98.64-19.05 98.14-19.53 97.64-20 96.24-20L96.24-20Q95.79-20 95.42-20.13 95.04-20.25 95.04-21L95.04-21Q95.04-21.75 95.84-21.9L95.84-21.9Q98.14-22.25 99.36-22.6 100.59-22.95 101.22-23.2 101.84-23.45 102.34-23.5L102.34-23.5Q102.74-23.55 103.02-23.35 103.29-23.15 103.29-22.55L103.29-22.55 103.29-19.45 103.44-19.45Q105.14-21.1 106.94-22.18 108.74-23.25 110.24-23.25L110.24-23.25Q111.99-23.25 112.92-21.95 113.84-20.65 113.84-19.2L113.84-19.2Q113.84-17.95 113.04-16.78 112.24-15.6 110.64-15.6L110.64-15.6Q109.84-15.6 109.37-15.93 108.89-16.25 108.84-16.4L108.84-16.4Q108.84-16.5 109.31-17 109.79-17.5 109.79-18.25L109.79-18.25Q109.79-19.15 109.31-19.7 108.84-20.25 108.04-20.25L108.04-20.25Q107.19-20.25 105.87-19.4 104.54-18.55 103.34-17.35L103.34-17.35 103.34-5.15Q103.34-4.3 103.42-3.5 103.49-2.7 104.02-2.23 104.54-1.75 105.94-1.75L105.94-1.75Q106.39-1.75 106.72-1.68 107.04-1.6 107.09-0.85L107.09-0.85Q107.09-0.5 106.89-0.18 106.69 0.15 106.29 0.15L106.29 0.15Q104.84 0.05 103.62 0.03 102.39 0 101.04 0L101.04 0Q99.69 0 98.49 0.03 97.29 0.05 95.84 0.15ZM128.19 0.6L128.19 0.6Q124.34 0.6 121.71-1.05 119.09-2.7 117.79-5.45 116.49-8.2 116.49-11.45L116.49-11.45Q116.49-13.65 117.26-15.73 118.04-17.8 119.49-19.53 120.94-21.25 122.99-22.25 125.04-23.25 127.64-23.25L127.64-23.25Q132.24-23.25 134.56-20.88 136.89-18.5 137.24-14.85L137.24-14.85Q137.24-13.1 136.26-12.55 135.29-12 133.74-12L133.74-12 121.59-12Q121.59-9.1 122.39-6.83 123.19-4.55 124.91-3.23 126.64-1.9 129.49-1.9L129.49-1.9Q131.59-1.9 133.09-2.8 134.59-3.7 135.99-5.95L135.99-5.95Q136.39-6.45 137.09-6L137.09-6Q137.49-5.8 137.59-5.38 137.69-4.95 137.49-4.65L137.49-4.65Q135.94-2.2 133.59-0.8 131.24 0.6 128.19 0.6ZM121.59-13.9L121.59-13.9 129.74-13.9Q130.94-13.9 131.66-14.38 132.39-14.85 132.44-16L132.44-16Q132.44-18.15 131.26-19.83 130.09-21.5 127.64-21.5L127.64-21.5Q125.14-21.5 123.46-19.5 121.79-17.5 121.59-13.9ZM165.38 0.5L162.43 0.5 156.03-17.25Q155.23-19.1 154.48-19.88 153.73-20.65 152.23-20.85L152.23-20.85Q151.58-20.95 151.36-21.05 151.13-21.15 151.08-21.8L151.08-21.8Q151.03-22.65 151.56-22.73 152.08-22.8 152.83-22.85L152.83-22.85Q155.93-23 157.68-21.95 159.43-20.9 160.53-18.4L160.53-18.4 165.13-5.45 165.28-5.45Q165.78-7.05 166.48-9.47 167.18-11.9 167.91-14.5 168.63-17.1 169.23-19.33 169.83-21.55 170.13-22.65L170.13-22.65 172.53-22.65 179.38-5.45 179.53-5.45Q180.23-7.55 180.88-10.08 181.53-12.6 182.08-14.93 182.63-17.25 183.03-18.75L183.03-18.75Q183.33-20.1 182.93-20.5 182.53-20.9 181.13-20.9L181.13-20.9Q180.68-20.9 180.38-20.98 180.08-21.05 180.03-21.8L180.03-21.8Q180.03-22.1 180.21-22.45 180.38-22.8 180.73-22.8L180.73-22.8Q182.18-22.75 183.26-22.7 184.33-22.65 185.63-22.65L185.63-22.65Q186.93-22.65 187.66-22.7 188.38-22.75 189.83-22.8L189.83-22.8Q190.23-22.8 190.41-22.45 190.58-22.1 190.58-21.8L190.58-21.8Q190.53-21.05 190.21-20.98 189.88-20.9 189.48-20.9L189.48-20.9Q187.68-20.9 186.66-20.3 185.63-19.7 185.18-17.95L185.18-17.95 179.63 0.5 176.68 0.5 170.33-15.85 165.38 0.5ZM202.83 0.6L202.83 0.6Q198.98 0.6 196.36-1.05 193.73-2.7 192.43-5.45 191.13-8.2 191.13-11.45L191.13-11.45Q191.13-13.65 191.91-15.73 192.68-17.8 194.13-19.53 195.58-21.25 197.63-22.25 199.68-23.25 202.28-23.25L202.28-23.25Q206.88-23.25 209.21-20.88 211.53-18.5 211.88-14.85L211.88-14.85Q211.88-13.1 210.91-12.55 209.93-12 208.38-12L208.38-12 196.23-12Q196.23-9.1 197.03-6.83 197.83-4.55 199.56-3.23 201.28-1.9 204.13-1.9L204.13-1.9Q206.23-1.9 207.73-2.8 209.23-3.7 210.63-5.95L210.63-5.95Q211.03-6.45 211.73-6L211.73-6Q212.13-5.8 212.23-5.38 212.33-4.95 212.13-4.65L212.13-4.65Q210.58-2.2 208.23-0.8 205.88 0.6 202.83 0.6ZM196.23-13.9L196.23-13.9 204.38-13.9Q205.58-13.9 206.31-14.38 207.03-14.85 207.08-16L207.08-16Q207.08-18.15 205.91-19.83 204.73-21.5 202.28-21.5L202.28-21.5Q199.78-21.5 198.11-19.5 196.43-17.5 196.23-13.9ZM219.03 0.7L219.03 0.7Q218.58 0.7 218.33 0.4 218.08 0.1 218.08-0.3L218.08-0.3 218.08-29.5Q218.08-30.4 218-31.18 217.93-31.95 217.43-32.43 216.93-32.9 215.53-32.9L215.53-32.9Q215.08-32.9 214.7-33.02 214.33-33.15 214.33-33.9L214.33-33.9Q214.33-34.65 215.13-34.8L215.13-34.8Q217.43-35.15 218.65-35.5 219.88-35.85 220.53-36.1 221.18-36.35 221.68-36.4L221.68-36.4Q222.08-36.45 222.35-36.25 222.63-36.05 222.63-35.45L222.63-35.45 222.63-20.35 222.78-20.35Q224.28-21.85 226.13-22.55 227.98-23.25 229.68-23.25L229.68-23.25Q232.63-23.25 235-21.75 237.38-20.25 238.78-17.63 240.18-15 240.18-11.5L240.18-11.5Q240.18-8.1 238.58-5.35 236.98-2.6 234.38-1 231.78 0.6 228.73 0.6L228.73 0.6Q224.28 0.6 221.03-1.85L221.03-1.85 220.78-1.85Q220.43-1.1 220.1-0.2 219.78 0.7 219.03 0.7ZM228.28-1.1L228.28-1.1Q231.28-1.1 233.18-3.85 235.08-6.6 235.08-11.3L235.08-11.3Q235.08-13.65 234.35-15.8 233.63-17.95 232.05-19.35 230.48-20.75 227.93-20.75L227.93-20.75Q226.23-20.75 224.93-20.15 223.63-19.55 222.63-18.45L222.63-18.45 222.63-5.25Q222.78-4.55 223.45-3.58 224.13-2.6 225.33-1.85 226.53-1.1 228.28-1.1ZM246.83 0.7L246.83 0.7Q246.38 0.7 246.13 0.4 245.88 0.1 245.88-0.3L245.88-0.3 245.88-29.5Q245.88-30.4 245.8-31.18 245.73-31.95 245.23-32.43 244.73-32.9 243.33-32.9L243.33-32.9Q242.88-32.9 242.5-33.02 242.13-33.15 242.13-33.9L242.13-33.9Q242.13-34.65 242.93-34.8L242.93-34.8Q245.23-35.15 246.45-35.5 247.68-35.85 248.33-36.1 248.98-36.35 249.48-36.4L249.48-36.4Q249.88-36.45 250.15-36.25 250.43-36.05 250.43-35.45L250.43-35.45 250.43-20.35 250.58-20.35Q252.08-21.85 253.93-22.55 255.78-23.25 257.48-23.25L257.48-23.25Q260.43-23.25 262.8-21.75 265.18-20.25 266.58-17.63 267.98-15 267.98-11.5L267.98-11.5Q267.98-8.1 266.38-5.35 264.78-2.6 262.18-1 259.58 0.6 256.53 0.6L256.53 0.6Q252.08 0.6 248.83-1.85L248.83-1.85 248.58-1.85Q248.23-1.1 247.9-0.2 247.58 0.7 246.83 0.7ZM256.08-1.1L256.08-1.1Q259.08-1.1 260.98-3.85 262.88-6.6 262.88-11.3L262.88-11.3Q262.88-13.65 262.15-15.8 261.43-17.95 259.85-19.35 258.28-20.75 255.73-20.75L255.73-20.75Q254.03-20.75 252.73-20.15 251.43-19.55 250.43-18.45L250.43-18.45 250.43-5.25Q250.58-4.55 251.25-3.58 251.93-2.6 253.13-1.85 254.33-1.1 256.08-1.1Z" opacity="1" transform="matrix(1,0,0,1,0,0)" fill="#fffff5" class="wordmark-text-0" data-fill-palette-color="quaternary" id="text-0"></path></svg></g></svg></g></svg></g></svg></g><g transform="matrix(1,0,0,1,87.86638610080993,0)"><svg viewBox="0 0 37.42566902553726 41.27956308691687" height="41.27956308691687" width="37.42566902553726"><g><svg xmlns="http://www.w3.org/2000/svg" data-name="Layer 1" viewBox="5.777366789483044 1.2235579212357353 88.4452664210339 97.55288415752852" x="0" y="0" height="41.27956308691687" width="37.42566902553726" class="icon-icon-0" data-fill-palette-color="quaternary" id="icon-0"><path d="M51.1 82.46V85.59A35.6 35.6 0 0 0 66.52 18.48 0.73 0.73 0 0 1 66.45 17.22L72.94 13A1.16 1.16 0 0 1 74.21 13 44.24 44.24 0 0 1 51.1 94.24V97.42A1.34 1.34 0 0 1 49 98.54L37.55 91.06A1.34 1.34 0 0 1 37.55 88.82L49 81.34A1.34 1.34 0 0 1 51.07 82.46ZM62.45 8.94L51 1.46A1.34 1.34 0 0 0 48.9 2.58V5.76A44.24 44.24 0 0 0 25.79 87 1.16 1.16 0 0 0 27.06 87L33.55 82.77A0.73 0.73 0 0 0 33.48 81.51 35.6 35.6 0 0 1 48.9 14.41V17.54A1.34 1.34 0 0 0 51 18.66L62.49 11.18A1.34 1.34 0 0 0 62.49 8.94ZM50 43.68A6.32 6.32 0 1 0 56.32 50 6.33 6.33 0 0 0 50 43.68M68.1 29.44L70.56 31.9A3.15 3.15 0 0 1 70.91 35.9L68.52 39.31A21.2 21.2 0 0 1 70.64 44.41L74.74 45.13A3.15 3.15 0 0 1 77.35 48.23V51.7A3.15 3.15 0 0 1 74.74 54.8L70.65 55.52A21.2 21.2 0 0 1 68.53 60.62L70.92 64.03A3.15 3.15 0 0 1 70.57 68.03L68.1 70.56A3.15 3.15 0 0 1 64.1 70.91L60.69 68.52A21.3 21.3 0 0 1 55.59 70.64L54.87 74.73A3.15 3.15 0 0 1 51.77 77.34H48.26A3.15 3.15 0 0 1 45.16 74.73L44.44 70.64A21.3 21.3 0 0 1 39.34 68.52L35.93 70.91A3.15 3.15 0 0 1 31.93 70.56L29.44 68.1A3.15 3.15 0 0 1 29.09 64.1L31.48 60.69A21.2 21.2 0 0 1 29.36 55.59L25.27 54.87A3.15 3.15 0 0 1 22.66 51.77V48.26A3.15 3.15 0 0 1 25.27 45.16L29.37 44.44A21.2 21.2 0 0 1 31.49 39.34L29.1 35.93A3.15 3.15 0 0 1 29.45 31.93L31.91 29.47A3.15 3.15 0 0 1 35.91 29.12L39.32 31.51A21.3 21.3 0 0 1 44.42 29.39L45.14 25.3A3.15 3.15 0 0 1 48.24 22.69H51.72A3.15 3.15 0 0 1 54.82 25.3L55.54 29.39A21.3 21.3 0 0 1 60.64 31.51L64.05 29.12A3.15 3.15 0 0 1 68.1 29.44M62.05 50A12.05 12.05 0 1 0 50 62.05 12.06 12.06 0 0 0 62.05 50" fill="#fffff5" data-fill-palette-color="quaternary"></path></svg></g></svg></g><g></g></svg></g></svg></g></svg></g></svg></g><defs></defs></svg><rect width="342.85155851775386" height="342.85155851775386" fill="none" stroke="none" visibility="hidden"></rect></g></svg></g></svg>